<svg xmlns="http://www.w3.org/2000/svg" xmlns:xlink="http://www.w3.org/1999/xlink" viewBox="0 0 512 512"><path d="M256 200c-92.9 0-176 56-248 56v32c72 0 155.1-56 248-56s176 56 248 56v-32c-72 0-155.1-56-248-56z" fill="#d2f0ff"/><path d="M8 255.75V264c72 0 155.1-56 248-56s176 56 248 56v-8.25a8.03 8.03 0 0 0-7.74-7.96c-70.2-3.71-150.67-55.8-240.26-55.8S85.94 244.09 15.74 247.8A8.03 8.03 0 0 0 8 255.75z" fill="#e8f7ff"/><path d="M429.04 408a8 8 0 0 1-7.86-6.56C406.54 321.8 337.07 264 256 264S105.46 321.8 90.82 401.44a7.99 7.99 0 1 1-15.73-2.89C91.11 311.31 167.2 248 256 248s164.88 63.31 180.91 150.55a8 8 0 0 1-7.87 9.45z" fill="#aea8af"/><path d="M256 248a183.7 183.7 0 0 0-127.54 51.45c15.5-5.25 31.2-10.4 47.12-14.84C199.6 271.49 227.03 264 256 264s56.4 7.49 80.43 20.6c15.91 4.45 31.61 9.6 47.11 14.85A183.7 183.7 0 0 0 256 248z" fill="#9c969e"/><path fill="#be788c" d="M8 288h72v112H8z"/><path d="M80 288H8v40c23.44 0 47.35-5.32 72-12.69V288z" fill="#aa6478"/><path fill="#be788c" d="M432 288h72v112h-72z"/><path d="M432 288h72v40c-23.44 0-47.35-5.32-72-12.69V288z" fill="#aa6478"/><path d="M256 224c-92.9 0-176 56-248 56v32c72 0 155.1-56 248-56s176 56 248 56v-32c-72 0-155.1-56-248-56z" fill="#be788c"/><g fill="#d2f0ff"><path d="M96 408H8a8 8 0 1 1 0-16h88a8 8 0 1 1 0 16zM504 408h-88a8 8 0 1 1 0-16h88a8 8 0 1 1 0 16z"/></g><g fill="#9c969e"><path d="M88 264.06V168H72v100.95a617.3 617.3 0 0 0 16-4.89zM176 235.9V144h-16v96.45c5.3-1.59 10.63-3.1 16-4.55zM424 264.06V168h16v100.95a617.3 617.3 0 0 1-16-4.89zM336 235.9V144h16v96.45c-5.3-1.59-10.63-3.1-16-4.55zM256 224c2.69 0 5.33.2 8 .29v-96.3h-16v96.3c2.67-.1 5.31-.3 8-.3z"/></g><g fill="#867e88"><path d="M248 152.31c2.67-.1 5.32-.31 8-.31s5.33.21 8 .31V128h-16v24.31zM336 164.79c5.36 1.51 10.69 3.1 16 4.75V144h-16v20.79zM424 193.22c5.36 1.66 10.7 3.22 16 4.68V168h-16v25.22zM160 169.54a618.04 618.04 0 0 1 16-4.75v-20.8h-16v25.55zM88 193.22V168H72v29.9c5.3-1.46 10.64-3.02 16-4.68z"/></g><path d="M504 192c-35.03 0-71.87-12.51-110.86-25.76C349.36 151.37 304.1 136 256 136s-93.36 15.37-137.14 30.24C79.86 179.5 43.03 192 8 192a8 8 0 1 1 0-16c32.4 0 68-12.1 105.72-24.9 45-15.3 91.55-31.1 142.28-31.1s97.27 15.8 142.28 31.1C436 163.9 471.61 176 504 176a8 8 0 1 1 0 16z" fill="#aea8af"/><path d="M504 176c-35.03 0-71.87-12.51-110.86-25.76C349.36 135.37 304.1 120 256 120s-93.36 15.37-137.14 30.24C79.86 163.5 43.03 176 8 176a8 8 0 1 1 0-16c32.4 0 68-12.1 105.72-24.9 45-15.3 91.55-31.1 142.28-31.1s97.27 15.8 142.28 31.1C436 147.9 471.61 160 504 160a8 8 0 1 1 0 16z" fill="#e8f7ff"/></svg>